<svg width="104" height="104" viewBox="0 0 104 104" fill="none" xmlns="http://www.w3.org/2000/svg">
<g clip-path="url(#clip0_150_11)">
<path fill-rule="evenodd" clip-rule="evenodd" d="M76.1635 25.9286H68.0641C66.2726 25.9286 64.823 27.3781 64.823 29.1696V35.6526C64.823 37.4409 66.2726 38.8904 68.0641 38.8904H77.3743C81.9636 38.8904 84.9515 42.8079 84.0715 47.5026L82.2517 57.2092C81.4556 61.4647 77.4249 64.8228 73.2279 64.8228H68.0641C66.2726 64.8228 64.823 66.2724 64.823 68.0607V95.6128C64.823 100.087 61.1926 103.712 56.7187 103.712C56.6569 103.717 51.3665 103.712 48.616 103.712C46.8278 103.712 45.3733 102.263 45.3733 100.471C45.3733 98.6829 46.8278 97.2301 48.616 97.2301H55.0982C56.8897 97.2301 58.3392 95.7805 58.3392 93.9923V66.4434C58.3392 61.9662 61.9664 58.3391 66.4435 58.3391H72.3006C73.9875 58.3391 75.7142 56.9924 76.1635 55.2943L77.8821 48.8217C78.3839 46.936 77.3125 45.3734 75.4813 45.3734H66.4433C61.9662 45.3734 58.339 41.747 58.339 37.2701V27.5491C58.339 23.072 61.9662 19.4458 66.4433 19.4458H74.5428C76.3343 19.4458 77.7839 17.9954 77.7839 16.2039V9.72078C77.7839 7.93333 76.3343 6.48295 74.5428 6.48295H61.5817C52.6307 6.48295 45.3731 13.7367 45.3731 22.6867V37.2699C45.3731 41.7468 41.7476 45.3732 37.2737 45.3732H32.4881C30.6571 45.3732 29.1694 46.936 29.1694 48.8215V55.2941C29.1694 56.9922 30.5367 58.3389 32.2221 58.3389H37.2737C41.7476 58.3389 45.3731 61.966 45.3731 66.4432V74.5424C45.3731 76.3339 43.9236 77.7851 42.1353 77.7851C40.3438 77.7851 38.8942 76.3339 38.8942 74.5424V68.0605C38.8942 66.2722 37.4414 64.8226 35.6532 64.8226H30.2851C26.0882 64.8226 22.6873 61.4645 22.6873 57.209V47.5024C22.6873 42.8077 26.4078 38.8902 30.9972 38.8902H35.653C37.4412 38.8902 38.894 37.4407 38.894 35.6524V21.066C38.8944 9.43051 48.3247 0 59.9598 0H76.1635C80.6407 0 84.2678 3.62635 84.2678 8.10025V17.8243C84.2678 22.3012 80.6407 25.9286 76.1635 25.9286ZM42.1355 84.2674C43.9238 84.2674 45.3733 85.717 45.3733 87.5085C45.3733 89.2968 43.9238 90.7512 42.1355 90.7512C40.344 90.7512 38.8944 89.2968 38.8944 87.5085C38.8944 85.717 40.344 84.2674 42.1355 84.2674Z" fill="#385685"/>
</g>
<defs>
<clipPath id="clip0_150_11">
<rect width="103.714" height="103.714" fill="white"/>
</clipPath>
</defs>
</svg>
