<svg width="105" height="104" viewBox="0 0 105 104" fill="none" xmlns="http://www.w3.org/2000/svg">
<g clip-path="url(#clip0_150_13)">
<path fill-rule="evenodd" clip-rule="evenodd" d="M36.4863 64.8312C38.2721 64.8312 39.716 66.2783 39.716 68.0609C39.716 69.8435 38.2705 71.289 36.4863 71.289C34.7037 71.289 33.2582 69.8435 33.2582 68.0609C33.2582 66.2783 34.7053 64.8312 36.4863 64.8312ZM27.0207 55.5828C24.9772 41.4047 34.8155 28.2573 48.9936 26.2138C63.1716 24.1703 76.3207 34.0086 78.3642 48.1866C80.4077 62.3647 70.5694 75.5137 56.3913 77.5572C56.2325 77.5815 56.0802 77.5815 55.923 77.5993L56.4027 77.5329C54.6298 77.7873 52.9898 76.5573 52.7322 74.7861C52.4777 73.0149 53.7077 71.37 55.479 71.1124L55.4741 71.101C55.479 71.101 55.4822 71.101 55.4871 71.101C66.1178 69.5696 73.4896 59.7119 71.9582 49.0812C70.4268 38.4488 60.5707 31.077 49.9383 32.6084C39.3125 34.1398 31.9342 43.9975 33.4672 54.6283C33.4672 54.6331 33.4672 54.6364 33.4705 54.6364L33.4591 54.6412C33.7135 56.4125 32.4836 58.0541 30.7123 58.3101C28.9411 58.5645 27.2962 57.3362 27.0386 55.5649L27.1099 56.0478C27.0872 55.889 27.0434 55.7399 27.0207 55.5828ZM78.6251 21.0751C78.6251 18.3882 80.8063 16.207 83.4964 16.207C86.1573 16.207 88.3142 18.3428 88.3564 21.0005V21.1529C88.3142 23.8105 86.1573 25.9464 83.4964 25.9464C80.8063 25.9464 78.6251 23.7652 78.6251 21.0751ZM95.9194 94.8338C90.2832 100.528 82.4625 103.714 68.9391 103.714H36.4863C22.9629 103.714 15.1438 100.528 9.51084 94.8338C3.94916 89.217 0.857178 81.3768 0.857178 68.0852V35.6323C0.857178 22.3358 3.94916 14.5006 9.51084 8.88378C15.1438 3.18759 22.9629 0 36.4863 0H68.9375C82.4625 0 90.2816 3.18759 95.9178 8.88378C96.2792 9.24516 96.6098 9.64219 96.9436 10.0344C97.6275 10.6275 98.0699 11.4961 98.0699 12.4733C98.0699 14.264 96.6195 15.7143 94.8288 15.7143C93.85 15.7143 92.9814 15.2703 92.3883 14.5832L92.3461 14.6172C92.0123 14.2202 91.6995 13.8086 91.3301 13.4375C86.4004 8.45271 79.1226 6.49673 67.2862 6.49673H38.1246C26.2915 6.49673 19.0282 8.45271 14.0986 13.4375C9.23211 18.3526 7.33932 25.6498 7.33932 37.2804V66.4452C7.33932 78.0807 9.23211 85.3585 14.0986 90.2719C19.0282 95.2551 26.2915 97.2321 38.1246 97.2321H67.2894C79.1258 97.2321 86.4036 95.2551 91.3333 90.2719C96.1998 85.3585 98.0731 78.0807 98.0731 66.4452V37.282C98.0731 34.4493 97.9564 31.8808 97.7198 29.5359L97.7344 29.5326C97.5594 27.7452 98.8542 26.1473 100.645 25.9577C102.439 25.773 104.048 27.0759 104.231 28.8666C104.236 28.9136 104.231 28.9574 104.231 29.0043H104.239C104.435 31.0689 104.571 33.2323 104.571 35.6323V68.0836C104.571 81.3768 101.476 89.217 95.9194 94.8338Z" fill="#385685"/>
</g>
<defs>
<clipPath id="clip0_150_13">
<rect width="103.714" height="103.714" fill="white" transform="translate(0.857178)"/>
</clipPath>
</defs>
</svg>
