<svg width="105" height="104" viewBox="0 0 105 104" fill="none" xmlns="http://www.w3.org/2000/svg">
<g clip-path="url(#clip0_150_9)">
<path fill-rule="evenodd" clip-rule="evenodd" d="M104.429 22.136C104.429 23.5602 103.982 24.8761 103.218 25.9516C101.18 29.0004 98.4116 31.2136 95.6486 33.532C95.082 34.0804 94.7229 34.8258 94.6753 35.6652C94.3668 49.674 89.1774 65.695 79.9325 76.2824C68.8751 88.9408 53.8013 97.5278 36.3648 97.5278C34.5773 97.5278 33.1237 96.075 33.1237 94.2867C33.1237 92.4952 34.5773 91.0456 36.3648 91.0456C68.4828 91.0456 85.9823 62.9699 88.0208 39.0013C88.1158 38.6667 88.1743 38.2346 88.1743 37.6206C88.1743 37.4164 88.1775 37.2131 88.1885 37.0137C88.3483 34.2191 89.5986 31.7154 91.5167 29.92C91.6117 29.8291 91.6844 29.746 91.7541 29.6622C94.0947 27.358 96.2533 24.6653 97.9245 22.1364C95.5506 23.2015 93.0471 24.0077 90.4453 24.553C90.0102 24.553 89.6429 24.186 89.6429 23.7428C89.6429 23.5212 89.7331 23.3178 89.8787 23.1723C89.885 23.1652 89.8566 23.1756 89.8534 23.1756C92.4075 20.9449 94.3668 18.03 95.4207 14.705C93.7052 15.7298 91.8949 16.6128 90.0163 17.3583C88.8025 17.8418 87.4842 18.1211 86.0948 18.1211C83.933 18.1211 81.9233 17.4707 80.2521 16.3549C80.1873 16.3114 80.1208 16.2822 80.0558 16.2425C77.2863 14.3821 74.0564 13.2626 70.3974 13.2626L70.016 13.3314C61.9656 13.3314 55.8475 17.8701 53.5607 24.8184C53.4965 24.8482 52.8414 27.7366 52.7757 28.1512C52.1688 32.0245 48.8186 34.9862 44.7735 34.9862C44.3344 34.9862 43.9015 34.9498 43.4797 34.8771C32.8506 32.8895 23.254 28.2928 16.0913 20.8177C16.0477 20.7812 16.0145 20.7703 15.9527 20.7085C15.0047 19.7597 13.4672 19.7597 12.5153 20.7085C12.2937 20.934 12.1228 21.188 12.0026 21.4641C11.9741 21.5338 11.9561 21.5338 11.9338 21.5479C11.0688 23.5467 10.4366 25.7085 10.4366 27.8458C10.4366 32.2682 12.2352 36.3052 14.9391 39.5138C14.9391 39.5179 14.9066 39.4996 14.9208 39.5138C15.1574 39.797 15.299 40.161 15.299 40.5566C15.299 41.4508 14.5718 42.1772 13.6777 42.1772C13.4996 42.1772 13.3327 42.1306 13.1729 42.0759C13.1476 42.0647 13.1222 42.0538 13.0969 42.0435C13.0675 42.0538 13.0351 42.0688 12.9837 42.0435C12.7661 41.9343 12.5224 41.8725 12.2613 41.8725C11.3814 41.8725 10.6693 42.5847 10.6471 43.4566C11.4906 49.2235 15.03 54.3296 19.8086 57.3239C19.7468 57.3176 19.7105 57.3176 19.7326 57.3302C20.1718 57.6182 20.4661 58.1198 20.4661 58.6864C20.4661 59.5805 19.7397 60.3069 18.8456 60.3069C18.8273 60.3069 18.8091 60.3037 18.7909 60.3037C18.7696 60.299 18.7514 60.2925 18.7291 60.2895C18.6714 60.2816 18.6167 60.2705 18.5581 60.2642C18.1222 60.2863 17.7803 60.6312 17.7803 61.0665C17.7803 61.1948 17.8064 61.3135 17.8603 61.4194C19.1794 64.7048 21.4107 67.5122 24.2199 69.5664C24.2531 69.5918 24.2602 69.6138 24.2999 69.6424C24.5397 69.8134 24.7652 70.0095 24.9835 70.2248C27.196 72.4372 27.196 76.0279 24.9835 78.2452C24.3039 78.9194 23.4967 79.3926 22.6429 79.6537C22.6358 79.6569 22.6396 79.6537 22.6317 79.6569C19.3107 80.7109 15.7927 81.3218 12.0571 81.3218C11.432 81.3218 10.735 81.3218 10.0331 81.3218C9.58602 81.3218 9.22282 81.6858 9.22282 82.1321C9.22282 82.3948 9.35347 82.6132 9.54247 82.7588C10.8766 83.5501 12.2431 84.3241 13.6635 85.044L13.6603 85.0472C14.6154 85.5818 15.2737 86.5914 15.2737 87.7689C15.2737 89.4954 13.8748 90.8945 12.1481 90.8945C11.4432 90.8945 10.7966 90.6508 10.2727 90.2583C8.00175 89.0698 5.79964 87.7975 3.70672 86.4427C1.1564 84.7934 0.073072 81.5839 1.09786 78.7053C2.02845 76.0735 4.48133 74.8391 7.19614 74.8391C8.40202 74.9847 10.8225 74.8391 12.0577 74.8391C14.5471 74.8391 16.5861 74.3264 18.9442 73.7565C15.4048 70.7545 12.6717 66.7568 11.1928 62.0948C10.8257 60.9347 10.7893 59.7178 11.0621 58.5705C6.87952 54.0065 3.95426 47.37 3.95426 40.8111C3.98667 39.1865 5.02239 37.8311 6.0804 36.6718C5.05561 33.8843 3.95426 30.9122 3.95426 27.8451C3.95426 23.3609 5.68782 18.9385 7.91525 15.0826C8.99068 13.2222 11.5527 11.8083 13.6781 11.6414C15.6223 11.6414 17.3306 12.7095 18.5697 14.2432C24.6823 21.8095 34.2496 25.8758 43.6618 28.2013C43.8217 28.2298 43.9926 28.2519 44.1636 28.2519C45.7082 28.2519 46.987 27.1797 47.3216 25.7332C49.9011 14.8389 58.3575 6.76785 70.0162 6.76785C74.9475 6.76785 79.7552 8.25469 83.8205 10.9474C84.4536 11.3471 85.1911 11.5908 85.9935 11.5908C86.3496 11.5908 86.6913 11.5322 87.0142 11.4451C88.7709 10.7908 90.4815 10.0312 92.1021 9.05787C93.1307 8.44308 94.275 8.39629 95.4159 8.39629C96.8559 8.39629 98.2913 8.62499 99.4688 9.56976C101.58 11.2671 102.433 14.1054 101.608 16.6999C101.608 16.707 101.605 16.7141 101.605 16.7212C103.31 17.9058 104.429 19.8903 104.429 22.136ZM7.19614 74.8391C6.94131 74.8105 7.44995 74.8391 7.19614 74.8391V74.8391ZM13.6783 11.6414C13.5112 11.6414 13.846 11.6262 13.6783 11.6414V11.6414ZM25.0234 89.4251C26.8117 89.4251 28.2653 90.8747 28.2653 92.6662C28.2653 94.4544 26.8117 95.9072 25.0234 95.9072C23.2319 95.9072 21.7824 94.4544 21.7824 92.6662C21.7824 90.8747 23.2321 89.4251 25.0234 89.4251Z" fill="#385685"/>
</g>
<defs>
<clipPath id="clip0_150_9">
<rect width="103.714" height="103.714" fill="white" transform="translate(0.714355 0.285706)"/>
</clipPath>
</defs>
</svg>
