<svg width="103" height="103" viewBox="0 0 103 103" fill="none" xmlns="http://www.w3.org/2000/svg">
<g clip-path="url(#clip0_151_2)">
<path fill-rule="evenodd" clip-rule="evenodd" d="M72.6343 65.1781L62.2217 63.2195C60.4481 62.8879 59.2668 61.0854 59.5791 59.1976C59.8913 57.3082 61.5795 56.0497 63.353 56.3812L74.7378 58.5217C78.5407 59.2942 81.053 62.962 80.3513 66.8019C80.3352 66.8888 80.3078 66.9661 80.2917 67.0514C79.7655 68.9392 78.8835 70.6677 77.5912 72.1547C70.1639 80.6925 52.5509 78.2333 38.2532 66.6571C23.9539 55.0857 18.3823 38.7811 25.8128 30.245C27.5799 28.2107 29.9328 26.8154 32.6751 26.0107C32.9053 25.9528 33.1274 25.8707 33.3575 25.8369C33.3575 25.8369 33.3607 25.8321 33.3656 25.8321C36.4636 25.3557 39.5536 27.0584 40.7912 30.0422L44.8452 40.9039C45.4455 42.51 44.5958 44.2868 42.9446 44.871C41.2982 45.4568 39.4764 44.6296 38.8761 43.0234L35.1504 33.0389C34.843 32.3806 34.0978 32.0362 33.3945 32.2744C32.3645 32.762 31.4665 33.4058 30.7455 34.2362C25.6035 40.1475 30.8147 52.5348 42.3909 61.9014C53.9672 71.268 67.5213 74.0731 72.6617 68.1635C72.9787 67.7965 73.2427 67.4022 73.4792 66.9902C73.5404 66.8744 73.5919 66.7537 73.6144 66.6169C73.7206 65.9474 73.2829 65.331 72.6343 65.1781ZM9.65625 67.5938C9.65625 69.3721 8.21586 70.8125 6.4375 70.8125C4.65914 70.8125 3.21875 69.3721 3.21875 67.5938C3.21875 65.8154 4.65914 64.375 6.4375 64.375C8.21586 64.375 9.65625 65.8154 9.65625 67.5938ZM51.5 103C43.4129 103 35.7732 101.112 28.9655 97.7872C28.8609 97.7422 28.7595 97.6939 28.6614 97.6472C28.5632 97.6005 28.4618 97.5571 28.3636 97.5072C26.479 96.5625 24.2549 96.2776 22.0629 96.8747C22.0211 96.886 21.9776 96.894 21.9342 96.9053L12.5934 99.4996C12.5596 99.5077 12.5193 99.5077 12.4839 99.5205C11.2511 99.8601 9.91697 99.8843 8.59728 99.5205C4.69938 98.4503 2.40923 94.4252 3.47947 90.5273C3.502 90.4372 3.51005 90.3696 3.52936 90.2892L6.25886 80.4688H6.4375C6.4375 78.6904 7.87789 77.25 9.65625 77.25C11.4346 77.25 12.875 78.6904 12.875 80.4688H12.941L12.8364 80.847C12.7977 81.1946 12.7076 81.5213 12.5644 81.8255L9.67556 92.2333C9.67556 92.2397 9.68683 92.2285 9.68683 92.2365C9.55808 92.7048 9.83811 93.1892 10.3064 93.3132C10.4465 93.3518 10.5881 93.3518 10.7152 93.326C10.7233 93.326 10.712 93.3421 10.7152 93.3421L20.2942 90.6802C20.3135 90.677 20.3264 90.677 20.3457 90.6738C24.1149 89.639 27.942 90.1073 31.1881 91.7215C31.2203 91.7376 31.2573 91.7424 31.2927 91.7537C37.3729 94.8147 44.2272 96.5625 51.5 96.5625C76.389 96.5625 96.5625 76.3874 96.5625 51.5C96.5625 26.6126 76.389 6.4375 51.5 6.4375C26.6126 6.4375 6.4375 26.6126 6.4375 51.5C6.4375 52.4447 6.48417 53.3814 6.54211 54.3084L6.39727 54.3212C6.41336 54.45 6.4375 54.582 6.4375 54.7188C6.4375 56.4971 4.99711 57.9375 3.21875 57.9375C1.44039 57.9375 0 56.4971 0 54.7188C0 54.4741 0.0321875 54.2343 0.0852969 54.009C0.0418437 53.1737 0 52.3417 0 51.5C0 23.0575 23.0575 0 51.5 0C79.9425 0 103 23.0575 103 51.5C103 79.9425 79.9425 103 51.5 103Z" fill="#385685"/>
</g>
<defs>
<clipPath id="clip0_151_2">
<rect width="103" height="103" fill="white"/>
</clipPath>
</defs>
</svg>
