<svg width="66" height="98" viewBox="0 0 66 98" fill="none" xmlns="http://www.w3.org/2000/svg">
<path d="M0 16.3333C0 7.31268 7.31269 0 16.3333 0H32.6667V32.6667H16.3333C7.31267 32.6667 0 25.354 0 16.3333Z" fill="#F24E1E"/>
<path d="M65.3333 16.3333C65.3333 7.31268 58.0206 0 49 0H32.6667V32.6667H49C58.0207 32.6667 65.3333 25.354 65.3333 16.3333Z" fill="#FF7262"/>
<path d="M0 49.0001C0 39.9794 7.31269 32.6667 16.3333 32.6667H32.6667V65.3334H16.3333C7.31267 65.3334 0 58.0207 0 49.0001Z" fill="#A259FF"/>
<circle cx="49" cy="49.0001" r="16.3333" fill="#1ABCFE"/>
<path d="M0 81.6666C0 72.6459 7.31269 65.3333 16.3333 65.3333H32.6667V81.6666C32.6667 90.6872 25.354 97.9999 16.3333 97.9999C7.31268 97.9999 0 90.6872 0 81.6666Z" fill="#0ACF83"/>
</svg>
