<svg width="346" height="346" viewBox="0 0 346 346" fill="none" xmlns="http://www.w3.org/2000/svg">
<path d="M21.625 175.703C20.1329 175.703 18.9219 174.492 18.9219 173C18.9219 88.0408 88.0408 18.9219 173 18.9219C174.492 18.9219 175.703 20.1329 175.703 21.625C175.703 23.1171 174.492 24.3281 173 24.3281C91.0196 24.3281 24.3281 91.0196 24.3281 173C24.3281 174.492 23.1171 175.703 21.625 175.703Z" fill="white"/>
<path d="M189.219 24.3281H183.812C182.32 24.3281 181.109 23.1171 181.109 21.625C181.109 20.1329 182.32 18.9219 183.812 18.9219H189.219C190.711 18.9219 191.922 20.1329 191.922 21.625C191.922 23.1171 190.711 24.3281 189.219 24.3281Z" fill="white"/>
<path d="M173 327.078C171.508 327.078 170.297 325.867 170.297 324.375C170.297 322.883 171.508 321.672 173 321.672C254.975 321.672 321.672 254.98 321.672 173C321.672 171.508 322.883 170.297 324.375 170.297C325.867 170.297 327.078 171.508 327.078 173C327.078 257.959 257.959 327.078 173 327.078Z" fill="white"/>
<path d="M162.188 327.078H156.781C155.289 327.078 154.078 325.867 154.078 324.375C154.078 322.883 155.289 321.672 156.781 321.672H162.188C163.68 321.672 164.891 322.883 164.891 324.375C164.891 325.867 163.68 327.078 162.188 327.078Z" fill="white"/>
<path d="M173 305.453C99.967 305.453 40.5469 246.033 40.5469 173C40.5469 99.967 99.967 40.5469 173 40.5469C246.038 40.5469 305.453 99.967 305.453 173C305.453 246.033 246.038 305.453 173 305.453ZM173 45.9531C102.946 45.9531 45.9531 102.946 45.9531 173C45.9531 243.054 102.946 300.047 173 300.047C243.054 300.047 300.047 243.054 300.047 173C300.047 102.946 243.054 45.9531 173 45.9531Z" fill="white"/>
<path d="M173 75.6875C119.256 75.6875 75.6875 119.256 75.6875 173C75.6875 226.744 119.256 270.312 173 270.312C226.744 270.312 270.312 226.744 270.312 173C270.312 119.256 226.744 75.6875 173 75.6875Z" fill="#385685"/>
<path d="M173 273.016C117.851 273.016 72.9844 228.149 72.9844 173C72.9844 117.851 117.851 72.9844 173 72.9844C228.149 72.9844 273.016 117.851 273.016 173C273.016 228.149 228.149 273.016 173 273.016ZM173 78.3906C120.835 78.3906 78.3906 120.835 78.3906 173C78.3906 225.165 120.835 267.609 173 267.609C225.165 267.609 267.609 225.165 267.609 173C267.609 120.835 225.165 78.3906 173 78.3906Z" fill="white"/>
<path d="M156.754 215.515C154.678 215.515 152.602 214.725 151.018 213.141L114.699 176.828C111.531 173.665 111.531 168.529 114.699 165.361C117.867 162.193 122.998 162.193 126.166 165.361L156.749 195.944L219.824 132.869C222.992 129.701 228.122 129.701 231.29 132.869C234.458 136.032 234.458 141.173 231.29 144.336L162.49 213.136C160.906 214.72 158.83 215.515 156.754 215.515Z" fill="white"/>
<path d="M156.754 218.218C153.867 218.218 151.153 217.093 149.11 215.05L112.791 178.736C110.747 176.698 109.623 173.984 109.623 171.092C109.623 168.205 110.747 165.491 112.791 163.447C116.878 159.36 123.992 159.36 128.079 163.447L156.754 192.117L217.915 130.956C222.002 126.868 229.117 126.868 233.204 130.956C235.248 132.994 236.372 135.713 236.372 138.6C236.372 141.487 235.248 144.206 233.204 146.244L164.399 215.05C162.355 217.093 159.641 218.218 156.754 218.218ZM120.435 165.68C118.992 165.68 117.635 166.242 116.613 167.264C115.591 168.286 115.029 169.643 115.029 171.086C115.029 172.53 115.591 173.887 116.613 174.908L152.932 211.222C154.976 213.266 158.533 213.266 160.576 211.222L229.387 142.417C230.404 141.395 230.971 140.038 230.971 138.595C230.971 137.151 230.409 135.794 229.387 134.772C227.273 132.664 223.857 132.664 221.743 134.772L158.668 197.847C157.614 198.901 155.9 198.901 154.846 197.847L124.263 167.264C123.235 166.242 121.879 165.68 120.435 165.68Z" fill="white"/>
</svg>
