<svg width="208" height="208" viewBox="0 0 208 208" fill="none" xmlns="http://www.w3.org/2000/svg">
<g clip-path="url(#clip0_133_82)">
<path d="M130 178.75C130 195 100.912 208 65 208C29.0875 208 0 195 0 178.75C0 154.602 60.515 141.537 102.213 154.797C119.015 160.062 130 169 130 178.75Z" fill="#385685"/>
<path d="M203.027 4.9725C206.099 8.05455 207.877 12.1937 207.998 16.5435C208.119 20.8932 206.573 25.1247 203.677 28.3725L100.75 143L65 107.25L179.66 4.3225C182.902 1.42875 187.129 -0.115861 191.473 0.00498147C195.817 0.125824 199.951 1.90298 203.027 4.9725Z" fill="#6976A5"/>
<path d="M102.213 154.798C100.275 160.768 96.9313 166.185 92.4625 170.593C80.5025 182.683 46.3775 185.25 29.25 185.25C27.5261 185.25 25.8728 184.565 24.6538 183.346C23.4348 182.127 22.75 180.474 22.75 178.75C22.75 173.452 23.1725 164.742 24.115 156C46.67 147.745 78.7475 147.355 102.213 154.798Z" fill="#8B99CB"/>
<path d="M87.9775 165.978C77.6425 176.345 43.8425 178.75 29.25 178.75C29.25 164.19 31.655 130.358 42.0225 120.023C48.1521 114.102 56.3616 110.827 64.883 110.901C73.4044 110.975 81.5558 114.393 87.5816 120.418C93.6074 126.444 97.0254 134.596 97.0994 143.117C97.1735 151.638 93.8976 159.848 87.9775 165.978Z" fill="#E0DFF0"/>
<path d="M68.25 110.5L97.5 139.75C99.2426 141.38 101.551 142.269 103.937 142.229C106.322 142.19 108.599 141.224 110.287 139.537C111.974 137.849 112.94 135.572 112.979 133.187C113.019 130.801 112.13 128.493 110.5 126.75L81.25 97.5C79.5073 95.8699 77.1994 94.9808 74.8135 95.0206C72.4276 95.0604 70.1505 96.0259 68.4632 97.7132C66.7758 99.4005 65.8103 101.678 65.7706 104.063C65.7308 106.449 66.6198 108.757 68.25 110.5Z" fill="#385685"/>
<path d="M126.75 198.25C144.699 198.25 159.25 189.52 159.25 178.75C159.25 167.98 144.699 159.25 126.75 159.25C108.801 159.25 94.25 167.98 94.25 178.75C94.25 189.52 108.801 198.25 126.75 198.25Z" fill="#385685"/>
<path d="M45.5 58.5C45.5 47.7425 26 26 26 26C26 26 6.5 47.7425 6.5 58.5C6.5 63.6717 8.55446 68.6316 12.2114 72.2886C15.8684 75.9455 20.8283 78 26 78C31.1717 78 36.1316 75.9455 39.7886 72.2886C43.4455 68.6316 45.5 63.6717 45.5 58.5Z" fill="#385685"/>
<path d="M26 71.5C13.6175 71.5 9.425 55.25 16.25 55.25C17.112 55.25 17.9386 55.5924 18.5481 56.2019C19.1576 56.8114 19.5 57.638 19.5 58.5C19.5 60.2239 20.1848 61.8772 21.4038 63.0962C22.6228 64.3152 24.2761 65 26 65C26.8619 65 27.6886 65.3424 28.2981 65.9519C28.9076 66.5614 29.25 67.388 29.25 68.25C29.25 69.112 28.9076 69.9386 28.2981 70.5481C27.6886 71.1576 26.8619 71.5 26 71.5Z" fill="#6B8BC9"/>
<path d="M68.25 133.25C68.2702 140.772 66.3816 148.177 62.7609 154.77C59.1402 161.363 53.9057 166.93 47.5475 170.95L35.5225 178.75C31.655 178.75 29.25 178.75 29.25 178.75C29.25 178.75 29.25 177.32 29.25 174.85L44.005 165.458C49.4514 162.034 53.9376 157.282 57.0418 151.648C60.1461 146.014 61.7662 139.683 61.75 133.25C61.75 132.388 62.0924 131.561 62.7019 130.952C63.3114 130.342 64.138 130 65 130C65.862 130 66.6886 130.342 67.2981 130.952C67.9076 131.561 68.25 132.388 68.25 133.25Z" fill="#6164B3"/>
<path d="M113.75 94.25L143 65" stroke="#FDFDFD" stroke-width="2" stroke-linecap="round" stroke-linejoin="round"/>
</g>
<defs>
<clipPath id="clip0_133_82">
<rect width="208" height="208" fill="white"/>
</clipPath>
</defs>
</svg>
