<svg width="256" height="256" viewBox="0 0 256 256" fill="none" xmlns="http://www.w3.org/2000/svg">
<path d="M126.121 89.635L14.193 153.493C11.503 155.028 11.503 158.907 14.193 160.442L126.121 224.301C127.35 225.002 128.857 225.002 130.085 224.301L242.013 160.442C244.703 158.907 244.703 155.028 242.013 153.493L130.085 89.635C128.857 88.934 127.35 88.934 126.121 89.635Z" fill="#222450"/>
<path d="M128.103 226.823C127.075 226.823 126.047 226.561 125.13 226.038L13.202 162.179C11.307 161.098 10.176 159.15 10.176 156.968C10.176 154.786 11.307 152.838 13.203 151.757L125.13 87.897C126.964 86.852 129.242 86.851 131.076 87.897L243.005 151.756C244.9 152.837 246.031 154.785 246.031 156.967C246.031 159.149 244.9 161.097 243.004 162.178L131.076 226.037C130.16 226.562 129.131 226.823 128.103 226.823ZM127.112 91.372L15.184 155.231C14.273 155.75 14.175 156.619 14.175 156.968C14.175 157.317 14.273 158.186 15.183 158.705L127.112 222.564C127.723 222.913 128.482 222.913 129.094 222.564L241.022 158.705C241.933 158.186 242.031 157.317 242.031 156.968C242.031 156.619 241.933 155.75 241.023 155.231L129.094 91.372C128.483 91.023 127.723 91.023 127.112 91.372Z" fill="#5959A5"/>
<path d="M185.828 166.472C182.761 164.722 131.02 135.203 128 133.479C124.977 135.204 73.237 164.723 70.172 166.472C70.468 166.98 70.895 167.411 71.422 167.713C121.111 196.063 109.755 189.584 124.629 198.07C125.674 198.666 126.837 198.964 128.001 198.964C129.165 198.964 130.328 198.666 131.373 198.07C146.246 189.584 134.891 196.063 184.58 167.713C185.106 167.411 185.533 166.98 185.828 166.472Z" fill="#385685"/>
<path d="M185.829 102.551C185.532 102.042 185.104 101.61 184.575 101.308L131.469 71.01C130.394 70.397 129.197 70.09 128 70.09V133.479L185.828 166.472C186.126 165.961 186.291 165.372 186.291 164.76V104.265C186.291 103.652 186.126 103.063 185.829 102.551Z" fill="#E0EBFC"/>
<path d="M185.829 102.551C185.532 102.042 185.104 101.61 184.575 101.308L131.469 71.01C130.394 70.397 129.197 70.09 128 70.09V133.479L185.828 166.472C186.126 165.961 186.291 165.372 186.291 164.76V104.265C186.291 103.652 186.126 103.063 185.829 102.551Z" fill="#A4C9FF"/>
<path d="M70.171 102.551C70.468 102.042 70.896 101.61 71.425 101.308L124.53 71.009C125.605 70.396 126.802 70.089 127.999 70.089V133.478L70.171 166.471C69.873 165.96 69.708 165.371 69.708 164.759V104.264C69.709 103.652 69.873 103.063 70.171 102.551Z" fill="#A4C9FF"/>
<path d="M185.826 168.473C185.49 168.473 185.15 168.388 184.837 168.21L127.009 135.217C126.385 134.861 126 134.198 126 133.48V70.09C126 68.986 126.896 68.09 128 68.09C129.561 68.09 131.103 68.499 132.459 69.273L185.565 99.571C186.39 100.042 187.078 100.724 187.556 101.545C188.036 102.37 188.29 103.311 188.29 104.265V164.76C188.29 165.713 188.036 166.653 187.556 167.478C187.186 168.116 186.515 168.473 185.826 168.473ZM130 132.318L184.291 163.293V104.265C184.291 104.017 184.225 103.772 184.1 103.557C183.976 103.344 183.797 103.167 183.583 103.045L130.478 72.747C130.323 72.659 130.164 72.579 130 72.507V132.318Z" fill="#5959A5"/>
<path d="M70.1741 168.473C69.4851 168.473 68.8151 168.117 68.4441 167.478C67.9641 166.653 67.7101 165.713 67.7101 164.76V104.265C67.7101 103.311 67.9641 102.37 68.4441 101.546C68.9221 100.726 69.6111 100.042 70.4351 99.571L123.54 69.273C124.897 68.499 126.439 68.09 128 68.09C129.104 68.09 130 68.986 130 70.09V133.48C130 134.198 129.615 134.861 128.991 135.217L71.1631 168.21C70.8511 168.388 70.5101 168.473 70.1741 168.473ZM71.9001 103.557C71.7751 103.772 71.7091 104.016 71.7091 104.265V163.293L126 132.318V72.507C125.837 72.578 125.677 72.658 125.522 72.747L72.4171 103.045C72.2031 103.167 72.0241 103.344 71.9001 103.557Z" fill="#5959A5"/>
<path d="M128 200.963C126.474 200.963 124.966 200.564 123.639 199.807L70.43 169.451C69.604 168.977 68.917 168.296 68.442 167.477C67.962 166.652 67.709 165.712 67.709 164.76V104.265C67.709 103.311 67.963 102.37 68.443 101.546C68.995 100.596 70.207 100.27 71.163 100.815L128.992 133.808C129.616 134.164 130.001 134.827 130.001 135.545V198.964C130 200.068 129.104 200.963 128 200.963ZM71.709 105.731V164.76C71.709 165.007 71.775 165.251 71.9 165.467C72.024 165.68 72.201 165.856 72.416 165.979L125.62 196.333C125.744 196.404 125.871 196.469 126 196.528V136.707L71.709 105.731Z" fill="#5959A5"/>
<path d="M128 200.963C126.896 200.963 126 200.067 126 198.963V135.544C126 134.826 126.385 134.163 127.009 133.807L184.838 100.814C185.791 100.27 187.006 100.596 187.558 101.545C188.038 102.37 188.292 103.31 188.292 104.264V164.759C188.292 165.712 188.038 166.652 187.558 167.478C187.084 168.294 186.398 168.976 185.575 169.448L132.365 199.806C131.034 200.564 129.526 200.963 128 200.963ZM130 136.706V196.527C130.13 196.468 130.257 196.402 130.382 196.332L183.588 165.976C183.799 165.855 183.977 165.679 184.1 165.467C184.225 165.251 184.291 165.007 184.291 164.759V105.73L130 136.706Z" fill="#5959A5"/>
<path d="M139.937 46.362L131.533 33.259C130.113 30.653 126.315 30.379 124.633 33L116.064 46.361C114.872 48.221 115.412 50.695 117.272 51.888C119.134 53.081 121.607 52.54 122.799 50.68L124.035 48.752V102.175C124.035 104.384 125.826 106.175 128.035 106.175C130.244 106.175 132.035 104.384 132.035 102.175V48.86C133.129 50.565 134 52.522 136.574 52.522C139.709 52.522 141.649 49.033 139.937 46.362Z" fill="#40C4DF"/>
<path d="M199.984 188.42C197.876 188.42 196.111 186.771 195.993 184.64C195.872 182.434 197.561 180.548 199.767 180.426L202.059 180.3L161.063 156.91C159.145 155.815 158.477 153.372 159.571 151.453C160.666 149.536 163.109 148.866 165.028 149.961L205.617 173.118L204.936 171.863C202.396 167.178 209.467 163.437 211.968 168.049L219.343 181.647L219.344 181.648C219.346 181.652 219.348 181.657 219.351 181.661C219.876 182.643 219.926 183.625 219.683 184.597C219.524 185.18 219.233 185.731 218.816 186.201L218.815 186.202C219.002 186.202 217.434 187.423 216.811 187.423C216.316 187.588 200.727 188.385 200.206 188.413C200.133 188.418 200.058 188.42 199.984 188.42Z" fill="#40C4DF"/>
<path d="M55.792 188.467C38.828 187.533 38.668 187.913 37.201 186.276C36.962 186.157 36.305 185.075 36.196 184.01C36.196 184.01 36.017 182.894 36.647 181.715C36.648 181.713 36.649 181.711 36.65 181.708C36.651 181.706 36.652 181.704 36.653 181.702L36.654 181.701L44.029 168.103C45.083 166.161 47.51 165.442 49.452 166.494C51.394 167.548 52.114 169.975 51.061 171.917L50.38 173.173L90.969 150.016C92.888 148.92 95.331 149.59 96.426 151.508C97.521 153.427 96.853 155.87 94.934 156.965L53.94 180.353L56.232 180.479C58.438 180.601 60.128 182.487 60.006 184.693C59.886 186.871 58.032 188.584 55.792 188.467Z" fill="#40C4DF"/>
</svg>
