<svg width="256" height="256" viewBox="0 0 256 256" fill="none" xmlns="http://www.w3.org/2000/svg">
<path d="M196.445 14.5V241.5C196.445 247.02 191.965 251.5 186.445 251.5H69.535C64.015 251.5 59.535 247.02 59.535 241.5V14.5C59.535 8.98 64.015 4.5 69.535 4.5H186.445C191.965 4.5 196.445 8.98 196.445 14.5Z" fill="#1E335E"/>
<path d="M196.445 14.5V241.5C196.445 247.02 191.965 251.5 186.445 251.5H85.035C79.515 251.5 75.035 247.02 75.035 241.5V14.5C75.035 8.98 79.515 4.5 85.035 4.5H186.445C191.965 4.5 196.445 8.98 196.445 14.5Z" fill="#385685"/>
<path d="M196.464 46.436H59.547V209.563H196.464V46.436Z" fill="white"/>
<path d="M105.12 33.148C108.916 33.148 111.993 30.0709 111.993 26.275C111.993 22.4792 108.916 19.402 105.12 19.402C101.324 19.402 98.2469 22.4792 98.2469 26.275C98.2469 30.0709 101.324 33.148 105.12 33.148Z" fill="white"/>
<path d="M136.712 239.438H119.3C114.239 239.438 110.136 235.335 110.136 230.274C110.136 225.213 114.239 221.11 119.3 221.11H136.712C141.773 221.11 145.876 225.213 145.876 230.274C145.876 235.335 141.773 239.438 136.712 239.438Z" fill="white"/>
<path d="M75.035 46.44H59.545V209.56H75.035V46.44Z" fill="#D8D6D7"/>
<path d="M156.309 153.758C154.108 151.378 154.253 147.665 156.634 145.464L175.522 128L156.634 110.536C154.253 108.336 154.108 104.622 156.309 102.242C158.51 99.862 162.222 99.716 164.603 101.917L188.153 123.69C190.663 126.01 190.666 129.986 188.153 132.309L164.603 154.082C162.225 156.282 158.511 156.14 156.309 153.758Z" fill="#385685"/>
<path d="M91.408 154.083L67.858 132.31C65.348 129.99 65.345 126.014 67.858 123.691L91.408 101.918C93.788 99.717 97.501 99.862 99.702 102.243C101.903 104.623 101.758 108.336 99.377 110.537L80.488 128L99.376 145.464C101.757 147.664 101.902 151.378 99.701 153.758C97.498 156.14 93.785 156.281 91.408 154.083Z" fill="#385685"/>
<path d="M112.5 154.856C109.692 153.235 108.731 149.646 110.352 146.838L135.495 103.291C137.116 100.485 140.703 99.522 143.513 101.143C146.321 102.764 147.282 106.353 145.661 109.161L120.518 152.708C118.897 155.514 115.308 156.477 112.5 154.856Z" fill="#385685"/>
<path d="M198.443 14.5C198.443 7.883 193.06 2.5 186.443 2.5H69.537C62.92 2.5 57.537 7.883 57.537 14.5V241.5C57.537 248.117 62.92 253.5 69.537 253.5H186.443C193.06 253.5 198.443 248.117 198.443 241.5V209.767C198.45 209.699 198.464 209.633 198.464 209.564C198.463 23.56 198.443 36.026 198.443 14.5ZM194.443 241.5C194.443 245.911 190.854 249.5 186.443 249.5H69.537C65.126 249.5 61.537 245.911 61.537 241.5V211.563H194.443V241.5ZM194.443 207.563H61.547V48.437H194.443V207.563ZM194.443 44.437H61.537V14.5C61.537 10.089 65.126 6.5 69.537 6.5H186.443C190.854 6.5 194.443 10.089 194.443 14.5V44.437Z" fill="#5959A5"/>
<path d="M157.764 24.275H125.383C124.279 24.275 123.383 25.171 123.383 26.275C123.383 27.379 124.279 28.275 125.383 28.275H157.764C158.868 28.275 159.764 27.379 159.764 26.275C159.764 25.171 158.869 24.275 157.764 24.275Z" fill="#5959A5"/>
<path d="M105.12 17.401C100.227 17.401 96.246 21.381 96.246 26.275C96.246 31.168 100.226 35.148 105.12 35.148C110.014 35.148 113.994 31.168 113.994 26.275C113.994 21.382 110.013 17.401 105.12 17.401ZM105.12 31.148C102.432 31.148 100.246 28.962 100.246 26.275C100.246 23.587 102.432 21.401 105.12 21.401C107.808 21.401 109.994 23.587 109.994 26.275C109.994 28.962 107.808 31.148 105.12 31.148Z" fill="#5959A5"/>
<path d="M119.299 241.438H136.711C142.867 241.438 147.876 236.43 147.876 230.273C147.876 224.116 142.867 219.108 136.711 219.108H119.299C113.143 219.108 108.134 224.116 108.134 230.273C108.134 236.43 113.143 241.438 119.299 241.438ZM119.299 223.109H136.711C140.662 223.109 143.876 226.323 143.876 230.274C143.876 234.225 140.662 237.439 136.711 237.439H119.299C115.348 237.439 112.134 234.225 112.134 230.274C112.134 226.323 115.349 223.109 119.299 223.109Z" fill="#5959A5"/>
<path d="M152.755 149.465C152.477 156.503 160.868 160.261 165.96 155.551L189.51 133.778C192.876 130.666 192.875 125.332 189.51 122.221L165.96 100.449C160.824 95.698 152.48 99.566 152.755 106.534C152.837 108.635 153.733 110.577 155.276 112.003L172.576 128L155.277 143.996C153.733 145.422 152.837 147.365 152.755 149.465ZM157.992 146.933L176.88 129.469C177.29 129.091 177.523 128.558 177.523 128.001C177.523 127.444 177.291 126.911 176.88 126.533L157.992 109.068C157.233 108.366 156.793 107.412 156.752 106.379C156.618 102.919 160.747 101.077 163.246 103.387L186.796 125.16C188.451 126.689 188.456 129.308 186.796 130.842L163.245 152.615C160.723 154.951 156.619 153.048 156.752 149.623C156.792 148.589 157.233 147.635 157.992 146.933Z" fill="#5959A5"/>
<path d="M90.0499 155.551C95.1299 160.248 103.531 156.511 103.256 149.465C103.087 145.165 101.935 145.105 83.4339 128L100.734 112.004C102.278 110.577 103.173 108.634 103.255 106.534C103.529 99.505 95.152 95.732 90.049 100.448L66.4999 122.222C63.1359 125.332 63.1339 130.667 66.4999 133.779L90.0499 155.551ZM69.2159 125.159L92.7659 103.386C96.5059 99.927 101.775 105.597 98.0189 109.068L79.1299 126.532C78.7209 126.91 78.4879 127.443 78.4879 128C78.4879 128.557 78.7209 129.09 79.1299 129.468L98.0189 146.933C101.768 150.398 96.5129 156.079 92.7649 152.614L69.2149 130.841C67.5629 129.314 67.5519 126.697 69.2159 125.159Z" fill="#5959A5"/>
<path d="M111.5 156.588C115.262 158.758 120.082 157.461 122.25 153.708L147.393 110.161C149.562 106.403 148.269 101.581 144.511 99.411C140.754 97.243 135.933 98.535 133.762 102.292L108.619 145.839C106.45 149.597 107.742 154.419 111.5 156.588ZM112.083 147.839L137.225 104.293C138.292 102.446 140.662 101.81 142.511 102.876C144.359 103.943 144.993 106.314 143.927 108.162L118.785 151.709C117.719 153.556 115.346 154.189 113.499 153.126C111.652 152.058 111.017 149.687 112.083 147.839Z" fill="#5959A5"/>
</svg>
