<svg width="274" height="274" viewBox="0 0 274 274" fill="none" xmlns="http://www.w3.org/2000/svg">
<g clip-path="url(#clip0_145_2)">
<path d="M194.083 0H22.8333C16.7776 0 10.9698 2.40565 6.68773 6.68773C2.40565 10.9698 0 16.7776 0 22.8333L0 182.667C0 188.722 2.40565 194.53 6.68773 198.812C10.9698 203.094 16.7776 205.5 22.8333 205.5H194.083C200.139 205.5 205.947 203.094 210.229 198.812C214.511 194.53 216.917 188.722 216.917 182.667V22.8333C216.917 16.7776 214.511 10.9698 210.229 6.68773C205.947 2.40565 200.139 0 194.083 0ZM74.2083 17.125C75.7223 17.125 77.1742 17.7264 78.2447 18.7969C79.3152 19.8675 79.9167 21.3194 79.9167 22.8333C79.9167 24.3473 79.3152 25.7992 78.2447 26.8697C77.1742 27.9403 75.7223 28.5417 74.2083 28.5417C72.6944 28.5417 71.2424 27.9403 70.1719 26.8697C69.1014 25.7992 68.5 24.3473 68.5 22.8333C68.5 21.3194 69.1014 19.8675 70.1719 18.7969C71.2424 17.7264 72.6944 17.125 74.2083 17.125ZM51.375 17.125C52.8889 17.125 54.3409 17.7264 55.4114 18.7969C56.4819 19.8675 57.0833 21.3194 57.0833 22.8333C57.0833 24.3473 56.4819 25.7992 55.4114 26.8697C54.3409 27.9403 52.8889 28.5417 51.375 28.5417C49.8611 28.5417 48.4091 27.9403 47.3386 26.8697C46.2681 25.7992 45.6667 24.3473 45.6667 22.8333C45.6667 21.3194 46.2681 19.8675 47.3386 18.7969C48.4091 17.7264 49.8611 17.125 51.375 17.125ZM28.5417 17.125C30.0556 17.125 31.5075 17.7264 32.5781 18.7969C33.6486 19.8675 34.25 21.3194 34.25 22.8333C34.25 24.3473 33.6486 25.7992 32.5781 26.8697C31.5075 27.9403 30.0556 28.5417 28.5417 28.5417C27.0277 28.5417 25.5758 27.9403 24.5053 26.8697C23.4347 25.7992 22.8333 24.3473 22.8333 22.8333C22.8333 21.3194 23.4347 19.8675 24.5053 18.7969C25.5758 17.7264 27.0277 17.125 28.5417 17.125ZM205.5 182.667C205.5 185.695 204.297 188.598 202.156 190.739C200.015 192.881 197.111 194.083 194.083 194.083H22.8333C19.8054 194.083 16.9016 192.881 14.7605 190.739C12.6195 188.598 11.4167 185.695 11.4167 182.667V45.6667H205.5V182.667Z" fill="#385685"/>
<path d="M274 102.75V216.917C274 222.972 271.594 228.78 267.312 233.062C263.03 237.344 257.222 239.75 251.167 239.75C251.167 270.175 252.137 271.089 248.255 273.258C247.388 273.759 246.403 274.023 245.401 274.023C244.399 274.023 243.415 273.759 242.547 273.258L186.777 239.75H68.5C62.4442 239.75 56.6364 237.344 52.3544 233.062C48.0723 228.78 45.6666 222.972 45.6666 216.917H57.0833C57.0833 219.945 58.2861 222.848 60.4272 224.989C62.5682 227.131 65.4721 228.333 68.5 228.333H188.375C190.601 228.333 187.005 226.564 239.75 258.188V234.042C239.75 232.528 240.351 231.076 241.422 230.005C242.492 228.935 243.944 228.333 245.458 228.333H251.167C254.195 228.333 257.098 227.131 259.239 224.989C261.38 222.848 262.583 219.945 262.583 216.917V102.75C262.583 99.7221 261.38 96.8183 259.239 94.6772C257.098 92.5362 254.195 91.3334 251.167 91.3334H228.333V79.9167H251.167C257.222 79.9167 263.03 82.3223 267.312 86.6044C271.594 90.8865 274 96.6942 274 102.75Z" fill="white"/>
<path d="M108.458 182.667C105.262 182.667 106.061 182.667 83.2846 159.833H57.0834C52.5415 159.833 48.1857 158.029 44.9742 154.818C41.7626 151.606 39.9584 147.25 39.9584 142.708V74.2083C39.9584 69.6665 41.7626 65.3107 44.9742 62.0991C48.1857 58.8875 52.5415 57.0833 57.0834 57.0833H159.833C164.375 57.0833 168.731 58.8875 171.943 62.0991C175.154 65.3107 176.958 69.6665 176.958 74.2083V142.708C176.958 147.25 175.154 151.606 171.943 154.818C168.731 158.029 164.375 159.833 159.833 159.833H133.632C110.57 182.667 111.655 182.667 108.458 182.667ZM57.0834 68.5C55.5694 68.5 54.1175 69.1014 53.047 70.1719C51.9765 71.2424 51.375 72.6944 51.375 74.2083V142.708C51.375 144.222 51.9765 145.674 53.047 146.745C54.1175 147.815 55.5694 148.417 57.0834 148.417H85.625C88.8788 148.417 88.0796 148.417 108.458 168.91C129.008 148.417 128.095 148.417 131.292 148.417H159.833C161.347 148.417 162.799 147.815 163.87 146.745C164.94 145.674 165.542 144.222 165.542 142.708V74.2083C165.542 72.6944 164.94 71.2424 163.87 70.1719C162.799 69.1014 161.347 68.5 159.833 68.5H57.0834Z" fill="white"/>
<path d="M108.458 85.625C105.673 82.8575 102.138 80.9666 98.2902 80.1861C94.4422 79.4055 90.4498 79.7694 86.8063 81.2329C83.1629 82.6963 80.028 85.1952 77.7891 88.4207C75.5502 91.6462 74.3053 95.4569 74.2084 99.3821C74.2235 102.21 74.8603 105.001 76.0736 107.556C77.287 110.111 79.0472 112.368 81.2296 114.167L108.458 137L135.687 114.167C137.722 112.421 139.381 110.279 140.561 107.871C141.742 105.463 142.42 102.84 142.554 100.162C142.687 97.484 142.275 94.8065 141.34 92.2931C140.406 89.7797 138.969 87.4828 137.118 85.5426C135.267 83.6024 133.04 82.0594 130.574 81.0077C128.107 79.956 125.452 79.4175 122.771 79.4253C120.089 79.433 117.437 79.9866 114.977 81.0525C112.516 82.1184 110.298 83.6742 108.458 85.625Z" fill="#385685"/>
</g>
<defs>
<clipPath id="clip0_145_2">
<rect width="274" height="274" fill="white"/>
</clipPath>
</defs>
</svg>
