<svg width="252" height="220" viewBox="0 0 252 220" fill="none" xmlns="http://www.w3.org/2000/svg">
<path d="M244.5 217.439H7.5C4.739 217.439 2.5 215.2 2.5 212.439V7.561C2.5 4.8 4.739 2.561 7.5 2.561H244.5C247.261 2.561 249.5 4.8 249.5 7.561V212.44C249.5 215.201 247.261 217.439 244.5 217.439Z" fill="#385685"/>
<path d="M249.5 37.74V212.44C249.5 215.2 247.26 217.44 244.5 217.44H7.5C4.74 217.44 2.5 215.2 2.5 212.44V7.56001C2.5 4.80001 4.74 2.56001 7.5 2.56001H67.45L92.96 34.26C94.73 36.46 97.41 37.74 100.24 37.74H249.5Z" fill="#D8D6D7"/>
<path d="M249.5 37.74V212.44C249.5 215.201 247.261 217.44 244.5 217.44H22.73C19.969 217.44 17.73 215.201 17.73 212.44V7.56001C17.73 4.79901 19.969 2.56001 22.73 2.56001H67.45L92.96 34.26C94.73 36.46 97.41 37.74 100.24 37.74H249.5Z" fill="white"/>
<path d="M203.342 27.353C207.151 27.353 210.238 24.2656 210.238 20.457C210.238 16.6484 207.151 13.561 203.342 13.561C199.533 13.561 196.446 16.6484 196.446 20.457C196.446 24.2656 199.533 27.353 203.342 27.353Z" fill="white"/>
<path d="M228.584 27.353C232.393 27.353 235.48 24.2656 235.48 20.457C235.48 16.6484 232.393 13.561 228.584 13.561C224.775 13.561 221.688 16.6484 221.688 20.457C221.688 24.2656 224.775 27.353 228.584 27.353Z" fill="white"/>
<path d="M42.322 173.385C49.5934 173.385 55.488 167.49 55.488 160.219C55.488 152.948 49.5934 147.053 42.322 147.053C35.0506 147.053 29.156 152.948 29.156 160.219C29.156 167.49 35.0506 173.385 42.322 173.385Z" fill="#385685"/>
<path d="M217.844 129.67H34.156C31.395 129.67 29.156 127.431 29.156 124.67V65.118C29.156 62.357 31.395 60.118 34.156 60.118H217.844C220.605 60.118 222.844 62.357 222.844 65.118V124.67C222.844 127.431 220.605 129.67 217.844 129.67Z" fill="#D8D6D7"/>
<path d="M145.415 173.385C152.686 173.385 158.581 167.49 158.581 160.219C158.581 152.948 152.686 147.053 145.415 147.053C138.144 147.053 132.249 152.948 132.249 160.219C132.249 167.49 138.144 173.385 145.415 173.385Z" fill="#385685"/>
<path d="M102.344 77.362L112.267 114.396C113.263 118.114 117.911 119.359 120.632 116.637L147.743 89.526C150.465 86.804 149.219 82.157 145.502 81.161L108.468 71.238C104.75 70.242 101.348 73.644 102.344 77.362Z" fill="#40C4DF"/>
<path d="M148.367 109.006L140.112 117.261C138.159 119.214 134.994 119.214 133.041 117.261L126.525 110.745L141.851 95.419L148.367 101.935C150.319 103.888 150.319 107.053 148.367 109.006Z" fill="#1C868E"/>
<path d="M244.5 0.561005C235.083 0.561005 17.114 0.561005 7.719 0.561005H7.5C3.64 0.561005 0.5 3.701 0.5 7.561V7.78V212.22V212.439C0.5 216.299 3.64 219.439 7.5 219.439H7.719H244.28H244.5C248.359 219.439 251.5 216.299 251.5 212.439V212.22V37.739V7.561C251.5 3.701 248.359 0.561005 244.5 0.561005ZM247.5 212.22C247.5 213.995 246.056 215.439 244.28 215.439H7.719C5.944 215.439 4.5 213.995 4.5 212.22V7.78C4.5 6.005 5.944 4.561 7.719 4.561H66.492L91.404 35.51C93.567 38.198 96.786 39.739 100.236 39.739H247.5V212.22ZM247.5 35.739H100.235C98.003 35.739 95.92 34.741 94.52 33.002L71.627 4.561H244.5C246.154 4.561 247.5 5.907 247.5 7.561V35.739Z" fill="#5959A5"/>
<path d="M58.76 21.618C58.76 20.514 57.864 19.618 56.76 19.618H22.217C21.113 19.618 20.217 20.514 20.217 21.618C20.217 22.722 21.113 23.618 22.217 23.618H56.76C57.864 23.618 58.76 22.722 58.76 21.618Z" fill="#5959A5"/>
<path d="M203.343 11.561C198.438 11.561 194.447 15.552 194.447 20.457C194.447 25.362 198.438 29.353 203.343 29.353C208.248 29.353 212.239 25.362 212.239 20.457C212.239 15.552 208.248 11.561 203.343 11.561ZM203.343 25.354C200.643 25.354 198.447 23.158 198.447 20.458C198.447 17.758 200.643 15.562 203.343 15.562C206.043 15.562 208.239 17.759 208.239 20.458C208.239 23.157 206.043 25.354 203.343 25.354Z" fill="#5959A5"/>
<path d="M42.322 175.385C50.685 175.385 57.488 168.582 57.488 160.219C57.488 151.856 50.685 145.052 42.322 145.052C33.959 145.052 27.155 151.856 27.155 160.219C27.155 168.582 33.959 175.385 42.322 175.385ZM42.322 149.053C48.479 149.053 53.488 154.062 53.488 160.22C53.488 166.377 48.479 171.386 42.322 171.386C36.165 171.386 31.155 166.377 31.155 160.22C31.156 154.062 36.165 149.053 42.322 149.053Z" fill="#5959A5"/>
<path d="M228.584 11.561C223.679 11.561 219.688 15.552 219.688 20.457C219.688 25.362 223.678 29.353 228.584 29.353C233.49 29.353 237.48 25.362 237.48 20.457C237.48 15.552 233.489 11.561 228.584 11.561ZM228.584 25.354C225.885 25.354 223.688 23.158 223.688 20.458C223.688 17.758 225.884 15.562 228.584 15.562C231.284 15.562 233.48 17.759 233.48 20.458C233.48 23.157 231.284 25.354 228.584 25.354Z" fill="#5959A5"/>
<path d="M27.156 65.118V124.67C27.156 128.53 30.296 131.67 34.156 131.67H217.844C221.703 131.67 224.844 128.53 224.844 124.67V65.118C224.844 61.258 221.703 58.118 217.844 58.118H34.156C30.296 58.118 27.156 61.258 27.156 65.118ZM220.844 65.118V124.67C220.844 126.324 219.498 127.67 217.844 127.67H34.156C32.502 127.67 31.156 126.324 31.156 124.67V65.118C31.156 63.464 32.502 62.118 34.156 62.118H217.844C219.498 62.118 220.844 63.463 220.844 65.118Z" fill="#5959A5"/>
<path d="M67.6021 149.053H119.751C122.393 149.053 122.397 145.053 119.751 145.053H67.6021C66.4981 145.053 65.6021 145.949 65.6021 147.053C65.6021 148.157 66.4981 149.053 67.6021 149.053Z" fill="#5959A5"/>
<path d="M67.6021 162.219H119.751C122.393 162.219 122.397 158.219 119.751 158.219H67.6021C66.4981 158.219 65.6021 159.115 65.6021 160.219C65.6021 161.323 66.4981 162.219 67.6021 162.219Z" fill="#5959A5"/>
<path d="M67.602 171.385C64.96 171.385 64.956 175.385 67.602 175.385H119.751C122.393 175.385 122.397 171.385 119.751 171.385H67.602Z" fill="#5959A5"/>
<path d="M160.581 160.219C160.581 151.856 153.777 145.052 145.415 145.052C137.053 145.052 130.249 151.856 130.249 160.219C130.249 168.582 137.053 175.385 145.415 175.385C153.777 175.385 160.581 168.582 160.581 160.219ZM134.249 160.219C134.249 154.062 139.258 149.052 145.415 149.052C151.572 149.052 156.581 154.061 156.581 160.219C156.581 166.376 151.572 171.385 145.415 171.385C139.258 171.385 134.249 166.376 134.249 160.219Z" fill="#5959A5"/>
<path d="M222.844 145.053H170.695C168.053 145.053 168.049 149.053 170.695 149.053H222.844C225.486 149.053 225.49 145.053 222.844 145.053Z" fill="#5959A5"/>
<path d="M222.844 158.219H170.695C168.053 158.219 168.049 162.219 170.695 162.219H222.844C225.486 162.219 225.49 158.219 222.844 158.219Z" fill="#5959A5"/>
<path d="M222.844 171.385H170.695C168.053 171.385 168.049 175.385 170.695 175.385H222.844C225.486 175.385 225.49 171.385 222.844 171.385Z" fill="#5959A5"/>
<path d="M222.844 187H29.156C26.514 187 26.51 191 29.156 191H222.844C225.486 191 225.49 187 222.844 187Z" fill="#5959A5"/>
<path d="M222.844 201H29.156C26.514 201 26.51 205 29.156 205H222.844C225.486 205 225.49 201 222.844 201Z" fill="#5959A5"/>
<path d="M110.336 114.914C111.732 120.126 118.238 121.86 122.047 118.052L126.525 113.573L131.627 118.676C134.355 121.405 138.798 121.405 141.526 118.676L149.781 110.421C152.51 107.692 152.51 103.251 149.781 100.522L144.679 95.42C148.831 91.268 152.252 88.972 150.97 84.18C150.315 81.735 148.464 79.885 146.02 79.23L108.986 69.307C103.776 67.911 99.017 72.674 100.413 77.88L110.336 114.914ZM146.953 103.349C148.122 104.519 148.122 106.422 146.953 107.592L138.698 115.846C137.529 117.015 135.626 117.016 134.455 115.846L129.353 110.744L141.85 98.247L146.953 103.349ZM107.951 73.17L144.985 83.093C147.215 83.69 147.964 86.477 146.33 88.112C137.819 96.623 127.607 106.835 119.22 115.223C117.587 116.858 114.798 116.108 114.2 113.878L104.277 76.844C103.679 74.615 105.715 72.573 107.951 73.17Z" fill="#5959A5"/>
</svg>
